<?xml version="1.0" encoding="utf-8"?>
<!-- Generator: Adobe Illustrator 15.0.0, SVG Export Plug-In . SVG Version: 6.00 Build 0)  -->
<!DOCTYPE svg PUBLIC "-//W3C//DTD SVG 1.1//EN" "http://www.w3.org/Graphics/SVG/1.1/DTD/svg11.dtd">
<svg version="1.1" id="Shape_1_1_" xmlns="http://www.w3.org/2000/svg" xmlns:xlink="http://www.w3.org/1999/xlink" x="0px" y="0px"
	 width="154px" height="50px" viewBox="0 0 154 50" enable-background="new 0 0 154 50" xml:space="preserve">
<g id="Shape_1">
	<g fill="#ffffff">
		<path fill-rule="evenodd" clip-rule="evenodd" d="M47.843,0.217H32.621v35.19h2.539V2.731h12.684c3.382,0,5.075,1.676,5.075,5.026
			v3.771c0,3.352-1.692,5.026-5.075,5.026h-4.775l-0.008,2.514h4.783c5.075,0,7.612-2.514,7.612-7.54V7.758
			C55.455,2.731,52.918,0.217,47.843,0.217z M79.661,0.217h-8.879c-5.075,0-7.612,2.515-7.612,7.541v20.107
			c0,5.029,2.537,7.542,7.612,7.542h8.879c5.074,0,7.61-2.513,7.61-7.542V7.758C87.271,2.731,84.735,0.217,79.661,0.217z
			 M84.735,27.865c0,3.354-1.69,5.029-5.074,5.029h-8.879c-3.383,0-5.075-1.676-5.075-5.029V7.758c0-3.351,1.692-5.026,5.075-5.026
			h8.879c3.384,0,5.074,1.676,5.074,5.026V27.865z M112.793,0.217H97.571v35.19h2.537V2.731h12.685c3.383,0,5.074,1.676,5.074,5.026
			v3.771c0,3.352-1.691,5.026-5.074,5.026h-1.661l0.849,2.514l5.887,16.338h2.537l-5.938-16.439
			c3.959-0.519,5.938-2.999,5.938-7.438V7.758C120.404,2.731,117.867,0.216,112.793,0.217z M154.405,24.031V10.604h-3.197v8.738
			c-3.28-1.523-16.801-6.502-16.936-6.552c-0.059-0.023-1.435-0.588-1.429-1.806c0.018-3.281,0.002-9.646,0-10.617v-0.435
			l-3.197,0.008v0.435c0.002,0.966,0.018,7.321,0,10.593c-0.014,2.726,2.18,4.287,3.482,4.78c4.115,1.516,15.188,5.653,16.984,6.59
			c0.861,0.447,1.057,1.289,1.095,1.725v2.194l0.007,0.304l-0.005,9.186h3.198l-0.001-11.178
			C154.413,24.465,154.419,24.27,154.405,24.031z M24.973,24.594c0.006-0.105,0.012-0.299-0.001-0.537V10.611h-3.198v8.754
			c-3.225-1.494-16.369-6.341-16.947-6.553c-0.015-0.006-1.423-0.587-1.417-1.803c0.017-3.282,0.002-9.648,0-10.619v-0.435
			L0.212-0.036l0,0.435c0.002,0.966,0.017,7.322,0,10.595c-0.014,2.725,2.18,4.287,3.481,4.781
			c4.118,1.517,15.197,5.657,16.986,6.586c0.861,0.448,1.056,1.292,1.094,1.729l0.002,11.68h3.198L24.973,24.594z M1.201,44.103
			c0.339-0.335,0.748-0.506,1.224-0.506c0.474,0,0.88,0.171,1.214,0.506l0.339-0.325c-0.43-0.425-0.948-0.637-1.553-0.637
			c-0.602,0-1.117,0.212-1.547,0.637c-0.429,0.424-0.644,0.936-0.644,1.531v1.636c0,0.595,0.214,1.105,0.644,1.53
			c0.425,0.39,0.94,0.583,1.547,0.583c0.604,0,1.123-0.193,1.553-0.583l-0.339-0.326c-0.334,0.339-0.74,0.506-1.214,0.506
			c-0.476,0-0.885-0.166-1.224-0.498c-0.336-0.337-0.504-0.741-0.504-1.212v-1.636C0.697,44.838,0.865,44.437,1.201,44.103z
			 M15.046,46.243c0.229-0.322,0.343-0.684,0.343-1.086c0-0.532-0.192-0.987-0.574-1.366c-0.387-0.383-0.85-0.575-1.383-0.575
			h-1.959v5.82h0.461v-1.938h1.498c0.056,0,0.149-0.009,0.285-0.022l1.142,1.961h0.538l-1.217-2.084
			C14.535,46.807,14.823,46.573,15.046,46.243z M13.432,46.631h-1.498v-2.949h1.498c0.409,0,0.759,0.144,1.046,0.436
			c0.295,0.287,0.442,0.633,0.442,1.04c0,0.404-0.147,0.753-0.442,1.047C14.191,46.488,13.841,46.631,13.432,46.631z M22.907,49.036
			h3.448v-0.457h-2.987v-2.501h1.473V45.53h-1.473v-1.849h2.987v-0.466h-3.448V49.036z M35.621,43.216l-2.12,5.82h0.477l0.714-1.938
			l0.167-0.467l1.076-2.931l1.078,2.931l0.168,0.467l0.712,1.938h0.496l-2.139-5.82H35.621z M44.445,43.682h1.728v5.354h0.459
			v-5.354h1.729v-0.466h-3.917V43.682z M55.704,49.036h0.469v-5.82h-0.469V49.036z M66.076,48.641l-1.994-5.425h-0.475l2.118,5.82
			h0.701l2.139-5.82h-0.497L66.076,48.641z M75.963,49.036h3.447v-0.457h-2.986v-2.501h1.474V45.53h-1.474v-1.849h2.986v-0.466
			h-3.447V49.036z M106.551,46.642h1.742v0.312c0,0.471-0.172,0.876-0.512,1.213c-0.335,0.332-0.742,0.498-1.217,0.498
			s-0.884-0.166-1.224-0.498c-0.336-0.337-0.503-0.742-0.503-1.213v-1.637c0-0.471,0.167-0.872,0.503-1.204
			c0.34-0.337,0.749-0.507,1.224-0.507s0.882,0.17,1.217,0.507l0.336-0.327c-0.429-0.425-0.947-0.637-1.553-0.637
			c-0.602,0-1.117,0.212-1.546,0.637c-0.429,0.427-0.644,0.937-0.644,1.531v1.637c0,0.596,0.215,1.106,0.644,1.532
			c0.425,0.388,0.94,0.581,1.546,0.581c0.603,0,1.117-0.193,1.546-0.581c0.431-0.426,0.645-0.937,0.645-1.532v-0.866h-2.204V46.642z
			 M116.21,49.047h3.449V48.59h-2.987v-2.503h2.057V45.54h-2.057v-1.852h2.987v-0.465h-3.449V49.047z M130.906,48.63l-3.155-5.406
			h-0.763v5.823h0.462V43.64l3.155,5.407h0.764v-5.823h-0.463V48.63z M139.846,44.112c0.34-0.337,0.748-0.507,1.225-0.507
			c0.475,0,0.881,0.17,1.217,0.507l0.335-0.327c-0.429-0.425-0.946-0.637-1.552-0.637c-0.603,0-1.117,0.212-1.546,0.637
			c-0.43,0.427-0.645,0.937-0.645,1.531v1.637c0,0.596,0.215,1.106,0.645,1.532c0.424,0.388,0.938,0.581,1.546,0.581
			c0.605,0,1.123-0.193,1.552-0.581l-0.335-0.326c-0.336,0.338-0.742,0.505-1.217,0.505c-0.477,0-0.885-0.166-1.225-0.498
			c-0.336-0.337-0.504-0.742-0.504-1.213v-1.637C139.342,44.846,139.51,44.444,139.846,44.112z M152.135,46.149l-1.699-2.926h-0.525
			l1.994,3.445v2.378h0.462v-2.378l2.007-3.445h-0.538L152.135,46.149z M94.262,43.224l-2.12,5.823h0.476l1.959-5.338l1.958,5.338
			h0.497l-2.141-5.823H94.262z"/>
	</g>
</g>
</svg>
