<?xml version="1.0" encoding="utf-8"?>
<!-- Generator: Adobe Illustrator 15.0.0, SVG Export Plug-In . SVG Version: 6.00 Build 0)  -->
<!DOCTYPE svg PUBLIC "-//W3C//DTD SVG 1.1//EN" "http://www.w3.org/Graphics/SVG/1.1/DTD/svg11.dtd">
<svg version="1.1" id="Shape_1_1_" xmlns="http://www.w3.org/2000/svg" xmlns:xlink="http://www.w3.org/1999/xlink" x="0px" y="0px"
	 width="94px" height="22px" viewBox="0 0 94 22" enable-background="new 0 0 94 22" xml:space="preserve">
<g id="Shape_1">
	<g>
		<path fill-rule="evenodd" clip-rule="evenodd" d="M29.203,0.206h-9.292v21.521h1.549V1.744h7.742c2.064,0,3.098,1.024,3.098,3.074
			v2.306c0,2.05-1.033,3.074-3.098,3.074h-2.915l-0.005,1.537h2.919c3.098,0,4.646-1.537,4.646-4.611V4.818
			C33.849,1.744,32.301,0.206,29.203,0.206z M48.625,0.206h-5.42c-3.098,0-4.646,1.538-4.646,4.612v12.296
			c0,3.075,1.548,4.612,4.646,4.612h5.42c3.097,0,4.645-1.537,4.645-4.612V4.818C53.27,1.744,51.722,0.206,48.625,0.206z
			 M51.722,17.114c0,2.051-1.032,3.075-3.097,3.075h-5.42c-2.065,0-3.098-1.024-3.098-3.075V4.818c0-2.05,1.033-3.074,3.098-3.074
			h5.42c2.064,0,3.097,1.024,3.097,3.074V17.114z M68.848,0.206h-9.291v21.521h1.549V1.744h7.742c2.064,0,3.098,1.024,3.098,3.074
			v2.306c0,2.05-1.033,3.074-3.098,3.074h-1.014l0.518,1.537l3.594,9.991h1.549l-3.625-10.054c2.416-0.316,3.625-1.834,3.625-4.549
			V4.818C73.494,1.744,71.945,0.206,68.848,0.206z M94.057,14.77V6.748h-1.57v5.463c-0.014-0.008-0.025-0.017-0.039-0.023
			c-1.42-0.741-10.201-3.983-10.561-4.116c-0.041-0.016-0.996-0.407-0.991-1.281c0.012-2.164,0-6.523,0-6.567l-1.569,0.005
			c0,0.043,0.012,4.396,0,6.555c-0.008,1.563,1.249,2.459,2.001,2.745c2.515,0.928,9.284,3.462,10.39,4.039
			c0.611,0.318,0.744,0.912,0.77,1.224v1.341h0.005l-0.003,5.613h1.57v-6.655C94.061,15.028,94.064,14.916,94.057,14.77z
			 M15.051,6.753h-1.57v5.472c-0.014-0.008-0.026-0.017-0.041-0.024c-1.42-0.738-10.2-3.98-10.565-4.115
			c-0.01-0.004-0.99-0.401-0.985-1.279c0.012-2.165,0-6.525,0-6.569L0.321,0.241c0,0.044,0.011,4.397,0,6.557
			c-0.008,1.563,1.249,2.459,2,2.745c2.515,0.928,9.285,3.462,10.39,4.037c0.611,0.319,0.744,0.914,0.77,1.225v1.456h0.004
			l-0.003,5.498h1.57v-6.655c0.003-0.061,0.006-0.172-0.001-0.318V6.753z"/>
	</g>
</g>
</svg>
