<?xml version="1.0" encoding="utf-8"?>
<!-- Generator: Adobe Illustrator 15.0.0, SVG Export Plug-In . SVG Version: 6.00 Build 0)  -->
<!DOCTYPE svg PUBLIC "-//W3C//DTD SVG 1.1//EN" "http://www.w3.org/Graphics/SVG/1.1/DTD/svg11.dtd">
<svg version="1.1" id="Shape_1_1_" xmlns="http://www.w3.org/2000/svg" xmlns:xlink="http://www.w3.org/1999/xlink" x="0px" y="0px"
	 width="68px" height="60px" viewBox="0 0 68 60" enable-background="new 0 0 68 60" xml:space="preserve">
<g id="Shape_1">
	<g>
		<path fill-rule="evenodd" clip-rule="evenodd" fill="#FFFFFF" d="M65.07,53.574H2.792c-1.455,0-2.635,1.187-2.635,2.648
			c0,1.461,1.181,2.647,2.635,2.647H65.07c1.454,0,2.635-1.187,2.635-2.647C67.705,54.761,66.524,53.574,65.07,53.574z
			 M0.261,42.393c0.292,1.196,1.357,1.997,2.53,1.997c0.206,0,0.415-0.024,0.622-0.076l60.78-14.985
			c1.108-0.273,1.909-1.235,1.981-2.378s-0.604-2.201-1.666-2.611L3.986,0.94C2.65,0.428,1.135,1.096,0.617,2.444
			C0.101,3.796,0.771,5.311,2.114,5.83l52.765,20.4L2.172,39.226C0.772,39.57-0.083,40.988,0.261,42.393z"/>
	</g>
</g>
</svg>
